<svg width="25" height="24" viewBox="0 0 25 24" fill="none" xmlns="http://www.w3.org/2000/svg">
<path d="M18.0582 18.9999L13.2474 14.2339C11.0715 15.6563 8.16212 15.2163 6.51341 13.2155C4.8647 11.2146 5.01149 8.30208 6.85318 6.47394C8.6978 4.64834 11.6375 4.50225 13.6571 6.13583C15.6768 7.7694 16.1212 10.6525 14.6855 12.8089L19.4943 17.5769L18.0582 18.9999ZM10.4459 7.01394C8.99192 7.01303 7.73974 8.02996 7.45515 9.44285C7.17056 10.8557 7.93283 12.271 9.27578 12.8233C10.6187 13.3755 12.1684 12.9108 12.9769 11.7134C13.7856 10.516 13.628 8.91941 12.6005 7.89994C12.0306 7.33129 11.2547 7.01224 10.4459 7.01394Z" fill="#7E7F85"/>
</svg>
