<svg width="20" height="20" viewBox="0 0 20 20" fill="none" xmlns="http://www.w3.org/2000/svg">
<path d="M7.29169 14.6767V18.5417C7.29169 18.8117 7.46502 19.0508 7.72169 19.1358C7.78585 19.1567 7.85168 19.1667 7.91668 19.1667C8.11168 19.1667 8.30002 19.075 8.42002 18.9117L10.6808 15.835L7.29169 14.6767Z" fill="#6F6F70"/>
<path d="M19.7375 0.115816C19.5459 -0.0200177 19.2942 -0.038351 19.0859 0.0708156L0.33587 9.86248C0.114204 9.97832 -0.0166296 10.215 0.00170373 10.4641C0.0208704 10.7141 0.186704 10.9275 0.422537 11.0083L5.63504 12.79L16.7359 3.29832L8.14587 13.6475L16.8817 16.6333C16.9467 16.655 17.015 16.6666 17.0834 16.6666C17.1967 16.6666 17.3092 16.6358 17.4084 16.5758C17.5667 16.4791 17.6742 16.3166 17.7017 16.1341L19.9934 0.717482C20.0275 0.484149 19.9292 0.252482 19.7375 0.115816Z" fill="currentColor"/>
</svg>
